<svg width="192" height="192" viewBox="0 0 192 192" fill="none" xmlns="http://www.w3.org/2000/svg">
<rect width="192" height="192" rx="32" fill="#F9FAEF"/>
<g transform="translate(72, 54) scale(2)">
<path d="M23 0C23.5518 0.000215919 23.9996 0.448115 24 1L24.0098 16.1504C24.0098 22.7778 18.6372 28.1504 12.0098 28.1504C5.38242 28.1503 0.00976584 22.7778 0.00976584 16.1504L2.14395e-07 1.00098C-0.0003577 0.448442 0.447461 0 1 0C1.55183 0.000215969 1.99962 0.448115 2 1L2.00977 16.1504C2.00977 21.6732 6.48699 26.1503 12.0098 26.1504C17.5326 26.1504 22.0098 21.6732 22.0098 16.1504L22 1.00098C21.9996 0.448442 22.4475 0 23 0Z" fill="#FF5003"/>
<path d="M12.0098 12.1504C12.2931 12.1504 12.531 12.2458 12.7227 12.4375C12.9143 12.6292 13.0098 12.8671 13.0098 13.1504V15.75L15.0098 17.7256C15.2096 17.9255 15.3095 18.1627 15.3096 18.4375C15.3096 18.7125 15.2098 18.9504 15.0098 19.1504C14.8098 19.3504 14.5719 19.4502 14.2969 19.4502C14.0221 19.4501 13.7848 19.3502 13.585 19.1504L11.3096 16.875C11.2264 16.7917 11.1559 16.6874 11.0977 16.5625C11.0394 16.4377 11.0098 16.3089 11.0098 16.1758V13.1504C11.0098 12.8671 11.1052 12.6292 11.2969 12.4375C11.4885 12.2458 11.7264 12.1504 12.0098 12.1504Z" fill="#FF5003"/>
<path fill-rule="evenodd" clip-rule="evenodd" d="M12.0098 8.15039C14.2264 8.15039 16.1135 8.92995 17.6719 10.4883C19.2302 12.0466 20.0098 13.9337 20.0098 16.1504C20.0098 18.3837 19.2302 20.2752 17.6719 21.8252C16.1136 23.3751 14.2264 24.1504 12.0098 24.1504C9.77643 24.1504 7.88496 23.3752 6.33496 21.8252C4.78496 20.2752 4.00977 18.3837 4.00977 16.1504C4.00977 13.9338 4.78503 12.0466 6.33496 10.4883C7.88496 8.92995 9.77643 8.15039 12.0098 8.15039ZM12.0098 10.1504C10.3431 10.1504 8.92643 10.7337 7.75977 11.9004C6.5931 13.0671 6.00977 14.4837 6.00977 16.1504C6.00977 17.8171 6.5931 19.2337 7.75977 20.4004C8.92643 21.5671 10.3431 22.1504 12.0098 22.1504C13.6764 22.1504 15.0931 21.5671 16.2598 20.4004C17.4264 19.2337 18.0098 17.8171 18.0098 16.1504C18.0098 14.4837 17.4264 13.0671 16.2598 11.9004C15.0931 10.7337 13.6764 10.1504 12.0098 10.1504Z" fill="#FF5003"/>
<path d="M8.00977 3.15039C8.2931 3.15039 8.53099 3.24583 8.72266 3.4375C8.91432 3.62917 9.00977 3.86706 9.00977 4.15039V6.15039C9.00977 6.43372 8.91432 6.67161 8.72266 6.86328C8.53099 7.05495 8.2931 7.15039 8.00977 7.15039C7.72643 7.15039 7.48854 7.05495 7.29688 6.86328C7.10521 6.67161 7.00977 6.43372 7.00977 6.15039V4.15039C7.00977 3.86706 7.10521 3.62917 7.29688 3.4375C7.48854 3.24583 7.72643 3.15039 8.00977 3.15039Z" fill="#FF5003"/>
<path d="M12.0098 2.15039C12.2931 2.15039 12.531 2.24583 12.7227 2.4375C12.9143 2.62917 13.0098 2.86706 13.0098 3.15039V6.15039C13.0098 6.43372 12.9143 6.67161 12.7227 6.86328C12.531 7.05495 12.2931 7.15039 12.0098 7.15039C11.7264 7.15039 11.4885 7.05495 11.2969 6.86328C11.1052 6.67161 11.0098 6.43372 11.0098 6.15039V3.15039C11.0098 2.86706 11.1052 2.62917 11.2969 2.4375C11.4885 2.24583 11.7264 2.15039 12.0098 2.15039Z" fill="#FF5003"/>
<path d="M16.0098 3.15039C16.2931 3.15039 16.531 3.24583 16.7227 3.4375C16.9143 3.62917 17.0098 3.86706 17.0098 4.15039V6.15039C17.0098 6.43372 16.9143 6.67161 16.7227 6.86328C16.531 7.05495 16.2931 7.15039 16.0098 7.15039C15.7264 7.15039 15.4885 7.05495 15.2969 6.86328C15.1052 6.67161 15.0098 6.43372 15.0098 6.15039V4.15039C15.0098 3.86706 15.1052 3.62917 15.2969 3.4375C15.4885 3.24583 15.7264 3.15039 16.0098 3.15039Z" fill="#FF5003"/>
</g>
</svg>
